<mxfile host="app.diagrams.net" agent="Mozilla/5.0 (Windows NT 10.0; Win64; x64) AppleWebKit/537.36 (KHTML, like Gecko) Chrome/131.0.0.0 Safari/537.36 OPR/116.0.0.0" version="26.0.16">
  <diagram name="Página-1" id="b1SmGUgnCCk4op67HP9U">
    <mxGraphModel dx="1390" dy="1954" grid="1" gridSize="10" guides="1" tooltips="1" connect="1" arrows="1" fold="1" page="1" pageScale="1" pageWidth="827" pageHeight="1169" math="0" shadow="0">
      <root>
        <mxCell id="0" />
        <mxCell id="1" parent="0" />
        <mxCell id="S2G4zOQfxBNZQEEFAaK3-1" value="INÍCIO" style="ellipse;whiteSpace=wrap;html=1;" parent="1" vertex="1">
          <mxGeometry x="40" y="40" width="130" height="80" as="geometry" />
        </mxCell>
        <mxCell id="S2G4zOQfxBNZQEEFAaK3-2" value="" style="shape=flexArrow;endArrow=classic;html=1;rounded=0;exitX=1;exitY=0.5;exitDx=0;exitDy=0;" parent="1" source="S2G4zOQfxBNZQEEFAaK3-1" target="S2G4zOQfxBNZQEEFAaK3-3" edge="1">
          <mxGeometry width="50" height="50" relative="1" as="geometry">
            <mxPoint x="390" y="430" as="sourcePoint" />
            <mxPoint x="290" y="80" as="targetPoint" />
          </mxGeometry>
        </mxCell>
        <mxCell id="S2G4zOQfxBNZQEEFAaK3-3" value="INFORMAR ATIVO" style="rounded=0;whiteSpace=wrap;html=1;" parent="1" vertex="1">
          <mxGeometry x="230" y="50" width="120" height="60" as="geometry" />
        </mxCell>
        <mxCell id="S2G4zOQfxBNZQEEFAaK3-4" value="" style="shape=flexArrow;endArrow=classic;html=1;rounded=0;exitX=1;exitY=0.514;exitDx=0;exitDy=0;exitPerimeter=0;entryX=0.001;entryY=0.69;entryDx=0;entryDy=0;entryPerimeter=0;" parent="1" source="S2G4zOQfxBNZQEEFAaK3-3" target="S2G4zOQfxBNZQEEFAaK3-7" edge="1">
          <mxGeometry width="50" height="50" relative="1" as="geometry">
            <mxPoint x="400" y="110" as="sourcePoint" />
            <mxPoint x="450" y="80" as="targetPoint" />
          </mxGeometry>
        </mxCell>
        <mxCell id="S2G4zOQfxBNZQEEFAaK3-5" value="INPUT" style="swimlane;fontStyle=0;childLayout=stackLayout;horizontal=1;startSize=30;horizontalStack=0;resizeParent=1;resizeParentMax=0;resizeLast=0;collapsible=1;marginBottom=0;whiteSpace=wrap;html=1;" parent="1" vertex="1">
          <mxGeometry x="430" y="-60" width="220" height="240" as="geometry" />
        </mxCell>
        <mxCell id="S2G4zOQfxBNZQEEFAaK3-6" value="Ativo movimentado(obrigatório)&lt;span style=&quot;color: rgba(0, 0, 0, 0); font-family: monospace; font-size: 0px; text-wrap-mode: nowrap;&quot;&gt;%3CmxGraphModel%3E%3Croot%3E%3CmxCell%20id%3D%220%22%2F%3E%3CmxCell%20id%3D%221%22%20parent%3D%220%22%2F%3E%3CmxCell%20id%3D%222%22%20value%3D%22LOCAL%20DE%20ORIGEM%22%20style%3D%22text%3BstrokeColor%3Dnone%3BfillColor%3Dnone%3Balign%3Dleft%3BverticalAlign%3Dmiddle%3BspacingLeft%3D4%3BspacingRight%3D4%3Boverflow%3Dhidden%3Bpoints%3D%5B%5B0%2C0.5%5D%2C%5B1%2C0.5%5D%5D%3BportConstraint%3Deastwest%3Brotatable%3D0%3BwhiteSpace%3Dwrap%3Bhtml%3D1%3B%22%20vertex%3D%221%22%20parent%3D%221%22%3E%3CmxGeometry%20x%3D%22380%22%20y%3D%2230%22%20width%3D%22220%22%20height%3D%2230%22%20as%3D%22geometry%22%2F%3E%3C%2FmxCell%3E%3C%2Froot%3E%3C%2FmxGraphModel%3E(&lt;/span&gt;" style="text;strokeColor=none;fillColor=none;align=left;verticalAlign=middle;spacingLeft=4;spacingRight=4;overflow=hidden;points=[[0,0.5],[1,0.5]];portConstraint=eastwest;rotatable=0;whiteSpace=wrap;html=1;" parent="S2G4zOQfxBNZQEEFAaK3-5" vertex="1">
          <mxGeometry y="30" width="220" height="30" as="geometry" />
        </mxCell>
        <mxCell id="rz4aOiVr0fC0x-GNira--2" value="tipo mov(obrigatório)" style="text;strokeColor=none;fillColor=none;align=left;verticalAlign=middle;spacingLeft=4;spacingRight=4;overflow=hidden;points=[[0,0.5],[1,0.5]];portConstraint=eastwest;rotatable=0;whiteSpace=wrap;html=1;" vertex="1" parent="S2G4zOQfxBNZQEEFAaK3-5">
          <mxGeometry y="60" width="220" height="30" as="geometry" />
        </mxCell>
        <mxCell id="rz4aOiVr0fC0x-GNira--1" value="LOCAL DE ORIGEM" style="text;strokeColor=none;fillColor=none;align=left;verticalAlign=middle;spacingLeft=4;spacingRight=4;overflow=hidden;points=[[0,0.5],[1,0.5]];portConstraint=eastwest;rotatable=0;whiteSpace=wrap;html=1;" vertex="1" parent="S2G4zOQfxBNZQEEFAaK3-5">
          <mxGeometry y="90" width="220" height="30" as="geometry" />
        </mxCell>
        <mxCell id="S2G4zOQfxBNZQEEFAaK3-7" value="LOCAL DE DESTINO" style="text;strokeColor=none;fillColor=none;align=left;verticalAlign=middle;spacingLeft=4;spacingRight=4;overflow=hidden;points=[[0,0.5],[1,0.5]];portConstraint=eastwest;rotatable=0;whiteSpace=wrap;html=1;" parent="S2G4zOQfxBNZQEEFAaK3-5" vertex="1">
          <mxGeometry y="120" width="220" height="30" as="geometry" />
        </mxCell>
        <mxCell id="S2G4zOQfxBNZQEEFAaK3-8" value="QUANTIDADE(OBRIGATÓRIO)" style="text;strokeColor=none;fillColor=none;align=left;verticalAlign=middle;spacingLeft=4;spacingRight=4;overflow=hidden;points=[[0,0.5],[1,0.5]];portConstraint=eastwest;rotatable=0;whiteSpace=wrap;html=1;" parent="S2G4zOQfxBNZQEEFAaK3-5" vertex="1">
          <mxGeometry y="150" width="220" height="30" as="geometry" />
        </mxCell>
        <mxCell id="S2G4zOQfxBNZQEEFAaK3-9" value="USUÁRIO QUE REALIZOU A MOVIMENTAÇÃO(OBRIGATÓRIO)" style="text;strokeColor=none;fillColor=none;align=left;verticalAlign=middle;spacingLeft=4;spacingRight=4;overflow=hidden;points=[[0,0.5],[1,0.5]];portConstraint=eastwest;rotatable=0;whiteSpace=wrap;html=1;" parent="S2G4zOQfxBNZQEEFAaK3-5" vertex="1">
          <mxGeometry y="180" width="220" height="30" as="geometry" />
        </mxCell>
        <mxCell id="S2G4zOQfxBNZQEEFAaK3-10" value="DATA E HORA(OBRIGATÓRIA)" style="text;strokeColor=none;fillColor=none;align=left;verticalAlign=middle;spacingLeft=4;spacingRight=4;overflow=hidden;points=[[0,0.5],[1,0.5]];portConstraint=eastwest;rotatable=0;whiteSpace=wrap;html=1;" parent="S2G4zOQfxBNZQEEFAaK3-5" vertex="1">
          <mxGeometry y="210" width="220" height="30" as="geometry" />
        </mxCell>
        <mxCell id="S2G4zOQfxBNZQEEFAaK3-11" value="" style="shape=flexArrow;endArrow=classic;html=1;rounded=0;entryX=0.5;entryY=0;entryDx=0;entryDy=0;exitX=1;exitY=0.5;exitDx=0;exitDy=0;" parent="1" source="rz4aOiVr0fC0x-GNira--5" target="S2G4zOQfxBNZQEEFAaK3-13" edge="1">
          <mxGeometry width="50" height="50" relative="1" as="geometry">
            <mxPoint x="900" y="40" as="sourcePoint" />
            <mxPoint x="940" y="70" as="targetPoint" />
            <Array as="points">
              <mxPoint x="1027" y="15" />
            </Array>
          </mxGeometry>
        </mxCell>
        <mxCell id="S2G4zOQfxBNZQEEFAaK3-13" value="SALVAR" style="rounded=0;whiteSpace=wrap;html=1;" parent="1" vertex="1">
          <mxGeometry x="967" y="120.00000000000003" width="120" height="60" as="geometry" />
        </mxCell>
        <mxCell id="S2G4zOQfxBNZQEEFAaK3-14" value="" style="shape=flexArrow;endArrow=classic;html=1;rounded=0;exitX=0;exitY=0.5;exitDx=0;exitDy=0;entryX=0.501;entryY=0.007;entryDx=0;entryDy=0;entryPerimeter=0;" parent="1" source="S2G4zOQfxBNZQEEFAaK3-13" target="S2G4zOQfxBNZQEEFAaK3-15" edge="1">
          <mxGeometry width="50" height="50" relative="1" as="geometry">
            <mxPoint x="750" y="260" as="sourcePoint" />
            <mxPoint x="870" y="330.4032258064516" as="targetPoint" />
            <Array as="points">
              <mxPoint x="865" y="150" />
            </Array>
          </mxGeometry>
        </mxCell>
        <mxCell id="S2G4zOQfxBNZQEEFAaK3-15" value="&lt;font style=&quot;font-size: 9px;&quot;&gt;VALIDAÇÃO DE CAMPOS&lt;/font&gt;" style="rhombus;whiteSpace=wrap;html=1;" parent="1" vertex="1">
          <mxGeometry x="820" y="290.4" width="90" height="89.6" as="geometry" />
        </mxCell>
        <mxCell id="S2G4zOQfxBNZQEEFAaK3-16" value="" style="shape=flexArrow;endArrow=classic;html=1;rounded=0;exitX=0.5;exitY=1.006;exitDx=0;exitDy=0;exitPerimeter=0;" parent="1" source="S2G4zOQfxBNZQEEFAaK3-15" target="S2G4zOQfxBNZQEEFAaK3-17" edge="1">
          <mxGeometry width="50" height="50" relative="1" as="geometry">
            <mxPoint x="820" y="360" as="sourcePoint" />
            <mxPoint x="865" y="471.61290322580646" as="targetPoint" />
          </mxGeometry>
        </mxCell>
        <mxCell id="S2G4zOQfxBNZQEEFAaK3-17" value="SALVAR MOVIMENTAÇÃO" style="rounded=0;whiteSpace=wrap;html=1;" parent="1" vertex="1">
          <mxGeometry x="805" y="441.61290322580646" width="120" height="60" as="geometry" />
        </mxCell>
        <mxCell id="S2G4zOQfxBNZQEEFAaK3-18" value="" style="shape=flexArrow;endArrow=classic;html=1;rounded=0;exitX=0.997;exitY=0.51;exitDx=0;exitDy=0;exitPerimeter=0;" parent="1" source="S2G4zOQfxBNZQEEFAaK3-15" target="S2G4zOQfxBNZQEEFAaK3-19" edge="1">
          <mxGeometry width="50" height="50" relative="1" as="geometry">
            <mxPoint x="925" y="340.4" as="sourcePoint" />
            <mxPoint x="970" y="335" as="targetPoint" />
          </mxGeometry>
        </mxCell>
        <mxCell id="S2G4zOQfxBNZQEEFAaK3-19" value="INFORMAR QUE DEVE SE PREENCHER OS CAMPOS" style="rounded=0;whiteSpace=wrap;html=1;" parent="1" vertex="1">
          <mxGeometry x="967" y="305.2" width="170" height="60" as="geometry" />
        </mxCell>
        <mxCell id="S2G4zOQfxBNZQEEFAaK3-20" value="NÃO" style="text;strokeColor=none;align=center;fillColor=none;html=1;verticalAlign=middle;whiteSpace=wrap;rounded=0;" parent="1" vertex="1">
          <mxGeometry x="900" y="305.2" width="60" height="30" as="geometry" />
        </mxCell>
        <mxCell id="S2G4zOQfxBNZQEEFAaK3-22" value="SIM" style="text;strokeColor=none;align=center;fillColor=none;html=1;verticalAlign=middle;whiteSpace=wrap;rounded=0;" parent="1" vertex="1">
          <mxGeometry x="860" y="390" width="60" height="30" as="geometry" />
        </mxCell>
        <mxCell id="S2G4zOQfxBNZQEEFAaK3-23" value="" style="shape=flexArrow;endArrow=classic;html=1;rounded=0;exitX=0.013;exitY=0.501;exitDx=0;exitDy=0;exitPerimeter=0;" parent="1" source="S2G4zOQfxBNZQEEFAaK3-17" target="S2G4zOQfxBNZQEEFAaK3-24" edge="1">
          <mxGeometry width="50" height="50" relative="1" as="geometry">
            <mxPoint x="680" y="430" as="sourcePoint" />
            <mxPoint x="720" y="470" as="targetPoint" />
          </mxGeometry>
        </mxCell>
        <mxCell id="S2G4zOQfxBNZQEEFAaK3-24" value="INFORMAÇÕES QUE AS MUDANÇAS FORAM SALVAS" style="rounded=0;whiteSpace=wrap;html=1;" parent="1" vertex="1">
          <mxGeometry x="620" y="441.61" width="130" height="60" as="geometry" />
        </mxCell>
        <mxCell id="rz4aOiVr0fC0x-GNira--3" value="" style="shape=flexArrow;endArrow=classic;html=1;rounded=0;exitX=1;exitY=0.5;exitDx=0;exitDy=0;entryX=0;entryY=0.5;entryDx=0;entryDy=0;" edge="1" parent="1" source="rz4aOiVr0fC0x-GNira--2" target="rz4aOiVr0fC0x-GNira--5">
          <mxGeometry width="50" height="50" relative="1" as="geometry">
            <mxPoint x="680" y="20" as="sourcePoint" />
            <mxPoint x="740" y="15" as="targetPoint" />
          </mxGeometry>
        </mxCell>
        <mxCell id="rz4aOiVr0fC0x-GNira--5" value="&lt;font style=&quot;font-size: 9px;&quot;&gt;VALIDAÇÃO DO TIPO DA MOV&lt;/font&gt;" style="rhombus;whiteSpace=wrap;html=1;" vertex="1" parent="1">
          <mxGeometry x="740" y="-30" width="90" height="89.6" as="geometry" />
        </mxCell>
        <mxCell id="rz4aOiVr0fC0x-GNira--7" value="SIM" style="text;strokeColor=none;align=center;fillColor=none;html=1;verticalAlign=middle;whiteSpace=wrap;rounded=0;" vertex="1" parent="1">
          <mxGeometry x="900" y="-20" width="60" height="30" as="geometry" />
        </mxCell>
        <mxCell id="rz4aOiVr0fC0x-GNira--8" value="NÃO" style="text;strokeColor=none;align=center;fillColor=none;html=1;verticalAlign=middle;whiteSpace=wrap;rounded=0;" vertex="1" parent="1">
          <mxGeometry x="785" y="-60" width="60" height="30" as="geometry" />
        </mxCell>
        <mxCell id="rz4aOiVr0fC0x-GNira--9" value="ERRO" style="rounded=0;whiteSpace=wrap;html=1;" vertex="1" parent="1">
          <mxGeometry x="725" y="-139.99999999999997" width="120" height="60" as="geometry" />
        </mxCell>
        <mxCell id="rz4aOiVr0fC0x-GNira--10" value="" style="shape=flexArrow;endArrow=classic;html=1;rounded=0;exitX=0.5;exitY=0;exitDx=0;exitDy=0;entryX=0.5;entryY=1;entryDx=0;entryDy=0;" edge="1" parent="1" source="rz4aOiVr0fC0x-GNira--5" target="rz4aOiVr0fC0x-GNira--9">
          <mxGeometry width="50" height="50" relative="1" as="geometry">
            <mxPoint x="763" y="-60" as="sourcePoint" />
            <mxPoint x="820" y="-60" as="targetPoint" />
          </mxGeometry>
        </mxCell>
      </root>
    </mxGraphModel>
  </diagram>
</mxfile>
